<?xml version="1.0" encoding="UTF-8"?>
<svg version="1.1" xmlns="http://www.w3.org/2000/svg" width="1024" height="1024">
<path d="M0 0 C337.92 0 675.84 0 1024 0 C1024 337.92 1024 675.84 1024 1024 C686.08 1024 348.16 1024 0 1024 C0 686.08 0 348.16 0 0 Z " fill="#FDD600" transform="translate(0,0)"/>
<path d="M0 0 C337.92 0 675.84 0 1024 0 C1024 337.92 1024 675.84 1024 1024 C686.08 1024 348.16 1024 0 1024 C0 686.08 0 348.16 0 0 Z M232 114 C231.01773438 114.35578125 230.03546875 114.7115625 229.0234375 115.078125 C185.74183214 132.00922131 148.34300818 166.65156274 129 209 C113.28546208 245.46122158 111.5306201 282.25265406 111.62248504 321.35975111 C111.63144884 326.60113894 111.62284896 331.84250504 111.61662292 337.08389282 C111.60720299 347.31391089 111.61367448 357.5438577 111.62588587 367.77387042 C111.63960617 379.7194643 111.63785923 391.66504182 111.63575254 403.61064159 C111.63257261 424.94250928 111.64417305 446.27434343 111.66381836 467.60620117 C111.68282055 488.24553447 111.689904 508.8848285 111.68432617 529.52416992 C111.67825112 552.06962902 111.67847678 574.61507092 111.689812 597.1605286 C111.69101913 599.57026001 111.69222512 601.97999142 111.69342995 604.38972282 C111.69403349 605.57495939 111.69463702 606.76019595 111.69525885 607.98134877 C111.69911753 616.28304985 111.69875239 624.58474446 111.6968441 632.886446 C111.69470913 643.02009195 111.70004391 653.15370374 111.71445765 663.28734011 C111.72163859 668.44506754 111.72583342 673.60274554 111.72121429 678.76047707 C111.37523507 716.86907744 111.37523507 716.86907744 116.3125 754.5625 C116.64060669 756.17439209 116.64060669 756.17439209 116.9753418 757.81884766 C118.83521638 766.71076864 120.99419377 775.4244368 124 784 C124.27150879 784.77472656 124.54301758 785.54945313 124.82275391 786.34765625 C133.10772734 809.44127628 145.73665967 828.87780128 162.63525391 846.56787109 C163.94948467 847.94699053 165.24660661 849.34235213 166.54296875 850.73828125 C204.9734615 890.91297185 257.96174765 901.58799624 311.35579979 903.06517461 C323.2465957 903.32089511 335.14206467 903.28748902 347.03494954 903.27610838 C351.97991682 903.27359463 356.92486679 903.28271156 361.86982727 903.29014587 C371.50913016 903.30276787 381.14840504 903.30470246 390.78771481 903.30234561 C398.63748916 903.30054836 406.48725514 903.30234187 414.3370285 903.30657005 C416.02530784 903.30746284 416.02530784 903.30746284 417.74769382 903.30837366 C420.03559814 903.30958565 422.32350246 903.31079978 424.61140677 903.31201603 C445.97223946 903.3228431 467.33305627 903.32075195 488.69388983 903.31463119 C508.1472269 903.30946459 527.60051386 903.3207194 547.05384102 903.33972941 C567.13199945 903.35919639 587.21013428 903.36734848 607.28830218 903.36360615 C618.51925735 903.3617077 629.75016989 903.36404768 640.98111725 903.37832069 C650.54082365 903.39034917 660.10046118 903.39151296 669.66016874 903.37953053 C674.51756572 903.37372142 679.37483747 903.37231497 684.23222542 903.38453293 C750.96902462 903.54096661 811.25849667 896.94792479 861 848 C886.68943871 822.38211962 902.30256366 790.47970001 908.1875 754.875 C908.34234863 753.95412598 908.49719727 753.03325195 908.65673828 752.08447266 C912.42249843 727.70742465 912.29787888 703.25811465 912.27610838 678.66493285 C912.27361441 673.37439249 912.28268799 668.08386892 912.29014587 662.79333496 C912.30282103 652.46031937 912.30469564 642.12732985 912.30234561 631.79430779 C912.30055438 623.38645203 912.30232923 614.97860411 912.30657005 606.57074928 C912.30716524 605.3689637 912.30776043 604.16717811 912.30837366 602.92897478 C912.30958555 600.48667734 912.31079968 598.0443799 912.31201603 595.60208247 C912.32286366 572.75750187 912.32074214 549.91293607 912.31463119 527.06835464 C912.30946316 506.22385443 912.32071945 485.37940096 912.33972941 464.53490999 C912.35915582 443.06716982 912.36735549 421.59945172 912.36360615 400.13170272 C912.36170156 388.10504066 912.364109 376.07841837 912.37832069 364.05176353 C912.39029683 353.81449516 912.39156999 343.57729106 912.37953053 333.34002169 C912.3736856 328.12950761 912.37241912 322.91911074 912.38453293 317.70860481 C912.51670023 256.59686011 903.54274475 201.20749854 859.375 156 C833.97106048 130.65585929 800.47389758 114.4331081 765.5625 107.1875 C764.63598633 106.99244873 763.70947266 106.79739746 762.75488281 106.59643555 C739.42685911 102.10707818 715.67673423 102.70818154 692.03683197 102.73855066 C686.76538409 102.74311962 681.49394893 102.73606954 676.22250366 102.73059082 C665.92330369 102.72174157 655.62413302 102.72359895 645.32493194 102.7294161 C636.94561578 102.73395102 628.56630778 102.73453762 620.18699074 102.73236847 C618.3913658 102.73190877 618.3913658 102.73190877 616.55946562 102.73143978 C614.12682765 102.73080027 611.69418968 102.73015184 609.26155172 102.7294946 C586.50001832 102.7238042 563.73850109 102.73032851 540.97697035 102.74109533 C521.49448581 102.75002622 502.01202512 102.7484801 482.52954102 102.73925781 C459.84862352 102.72852637 437.16772017 102.72435701 414.48680049 102.73048234 C412.06268585 102.73111937 409.6385712 102.73174811 407.21445656 102.73236847 C406.02207612 102.73267702 404.82969569 102.73298557 403.60118252 102.73330347 C395.24446556 102.73502207 386.88775765 102.73213337 378.5310421 102.72740936 C368.32881164 102.72176834 358.12661191 102.72338398 347.92438491 102.73397085 C342.73035928 102.73918508 337.53638466 102.74135796 332.34235954 102.73467255 C281.37285078 102.49686391 281.37285078 102.49686391 232 114 Z " fill="#FBFBFB" transform="translate(0,0)"/>
<path d="M0 0 C1.04668844 -0.00367669 2.09337688 -0.00735338 3.17178315 -0.01114148 C6.67891409 -0.02215383 10.18601538 -0.02601806 13.69316101 -0.02983093 C16.20830377 -0.03609758 18.7234456 -0.04274456 21.23858643 -0.04974365 C28.78684455 -0.06895214 36.33509745 -0.07957048 43.88337377 -0.08847144 C47.44506894 -0.09286206 51.00676264 -0.09822696 54.56845665 -0.10346031 C66.42138135 -0.12047076 78.27430515 -0.13496154 90.12724018 -0.14220905 C93.20032057 -0.14411871 96.27340096 -0.14603907 99.34648132 -0.147995 C100.49207081 -0.14872061 100.49207081 -0.14872061 101.66080352 -0.14946087 C114.01298258 -0.15774855 126.36506442 -0.18306486 138.71720109 -0.21557567 C151.42220447 -0.24874025 164.12715861 -0.26666638 176.83220547 -0.26985329 C183.95607262 -0.27201003 191.07979809 -0.28063483 198.20362282 -0.30631447 C204.91368029 -0.33044772 211.62344022 -0.33378857 218.33354759 -0.32355309 C220.78557049 -0.32305997 223.23760631 -0.32931344 225.68959045 -0.34310913 C257.5060538 -0.51198573 281.48559528 7.85650327 304.59819031 30.14717102 C305.32908875 30.8149054 306.05998718 31.48263977 306.81303406 32.17060852 C325.86633783 50.05430355 336.76090132 78.17397018 337.69892311 103.91103745 C337.74802043 106.93455085 337.76748309 109.95676503 337.77519226 112.98066711 C337.78176346 114.12042999 337.78833466 115.26019287 337.79510498 116.43449402 C337.8146981 120.17986638 337.82647117 123.92519886 337.83647156 127.67060852 C337.84054708 128.96038227 337.84462261 130.25015602 337.84882164 131.57901382 C337.86748936 137.70860491 337.88206579 143.83817642 337.89043361 149.96779001 C337.90017158 156.98019584 337.92641927 163.99228315 337.9669345 171.00457704 C338.00107105 177.12878856 338.01260591 183.2528693 338.0166378 189.37717056 C338.02146504 191.95637289 338.03296641 194.53557278 338.0516758 197.11471176 C338.26661111 228.715264 332.69987504 256.70925155 311.59819031 281.14717102 C311.00779968 281.88193665 310.41740906 282.61670227 309.80912781 283.37373352 C293.81723965 302.63204989 270.49143011 314.56727951 245.71086884 316.94061661 C239.07363815 317.38105698 232.41808339 317.30072211 225.76908875 317.30488586 C224.08278778 317.30956219 222.39648806 317.31470709 220.71018982 317.32028198 C217.09698863 317.33150138 213.4837954 317.33996462 209.87058258 317.34640121 C204.15526306 317.35713692 198.44000154 317.37739284 192.72471619 317.39952087 C176.47911718 317.46126999 160.23352356 317.51552336 143.98783875 317.54853821 C135.00173055 317.56687929 126.01572152 317.59579891 117.02968621 317.63654292 C112.27997118 317.65760203 107.53038094 317.67306885 102.78061676 317.67535019 C98.31861468 317.67749637 93.85687349 317.69336257 89.39495087 317.71973991 C87.75911904 317.72693241 86.12325561 317.72903411 84.4874115 317.72563744 C82.2520365 317.72173743 80.01749265 317.73621271 77.7822113 317.75517273 C76.5323431 317.75848288 75.2824749 317.76179302 73.9947319 317.76520348 C68.32339685 318.40298925 64.16485047 321.29981403 59.57865906 324.51826477 C58.64747253 325.16891907 57.71628601 325.81957336 56.75688171 326.48994446 C55.77638855 327.18120422 54.79589539 327.87246399 53.78569031 328.58467102 C52.76394714 329.30042297 51.74220398 330.01617493 50.6894989 330.75361633 C47.65597829 332.88045292 44.6264796 335.01289451 41.59819031 337.14717102 C40.78720886 337.71774231 39.97622742 338.2883136 39.14067078 338.87617493 C32.84980368 343.30247027 26.57028844 347.74461297 20.30131531 352.20185852 C13.34883185 357.13830171 6.37183697 362.02889794 -0.71430969 366.77217102 C-1.3306427 367.18612122 -1.94697571 367.60007141 -2.58198547 368.02656555 C-10.28984423 373.14717102 -10.28984423 373.14717102 -14.83930969 373.14717102 C-19.58262435 371.81571427 -20.63186812 370.13914565 -23.40180969 366.14717102 C-24.86521113 363.22036815 -24.605169 360.56163137 -24.68305969 357.29560852 C-24.70146912 356.60391571 -24.71987854 355.9122229 -24.73884583 355.1995697 C-24.79761668 352.97385752 -24.85021304 350.74806022 -24.90180969 348.52217102 C-25.16911046 337.3754792 -25.62726142 326.27096257 -26.40180969 315.14717102 C-27.15518616 314.81676819 -27.15518616 314.81676819 -27.92378235 314.47969055 C-49.64127845 304.85112207 -68.74500378 291.84228264 -81.40180969 271.14717102 C-81.89552063 270.42142883 -82.38923157 269.69568665 -82.89790344 268.94795227 C-99.22225594 243.97381299 -98.55902633 214.44797562 -98.60493469 185.77998352 C-98.60776207 184.57931118 -98.61058945 183.37863884 -98.6135025 182.14158249 C-98.62840402 175.79367103 -98.63769186 169.4457818 -98.64204407 163.09785461 C-98.64753147 156.59020561 -98.67159166 150.08276549 -98.70001602 143.57518196 C-98.71875236 138.52357913 -98.72385372 133.4720257 -98.72537994 128.42039108 C-98.72837956 126.02293118 -98.73631531 123.62547158 -98.74956512 121.22804642 C-98.92023608 87.99029908 -91.9337473 58.51634083 -69.40180969 33.14717102 C-68.61290344 32.2577179 -67.82399719 31.36826477 -67.01118469 30.45185852 C-49.24434451 11.6848982 -26.03985345 -0.00492492 0 0 Z " fill="#050606" transform="translate(392.4018096923828,196.8528289794922)"/>
<path d="M0 0 C1.18391367 -0.00551503 1.18391367 -0.00551503 2.39174479 -0.01114148 C5.03368673 -0.02214473 7.67558928 -0.02601653 10.31755066 -0.02983093 C12.21348698 -0.0360984 14.10942207 -0.04274545 16.00535583 -0.04974365 C22.23205209 -0.07076266 28.45874851 -0.0811479 34.68547058 -0.09111023 C36.83374736 -0.09515938 38.982024 -0.09927635 41.13030052 -0.10346031 C51.23024694 -0.12251169 61.33018607 -0.13673966 71.43014699 -0.14507228 C83.06103721 -0.15482779 94.69173626 -0.18110346 106.32255918 -0.22157317 C115.3283573 -0.25182514 124.33410093 -0.26654997 133.33994883 -0.26985329 C138.71051217 -0.27219451 144.08087129 -0.28103273 149.45137978 -0.30631447 C154.5133191 -0.32975777 159.57492212 -0.33376365 164.63690186 -0.32355309 C166.48302523 -0.32306145 168.32916608 -0.32927036 170.17523766 -0.34310913 C187.90660012 -0.4684643 202.20552495 1.44471736 215.85734558 13.80732727 C229.13458097 27.63874292 230.45416061 44.58318939 230.36418152 62.76069641 C230.35353272 65.3122932 230.36408822 67.8631747 230.37687683 70.41474915 C230.39559551 90.50414765 228.86278652 108.30073185 215.10343933 124.14717102 C201.82591346 137.2269465 184.25890193 138.44894358 166.77067566 138.43769836 C164.9103112 138.4436893 163.04994921 138.45049614 161.18959045 138.45805359 C156.15420662 138.47566477 151.11889083 138.48040695 146.08347917 138.48168516 C142.93161904 138.48311026 139.77977602 138.48738669 136.62792015 138.4926796 C125.61511011 138.51116481 114.60234836 138.51935223 103.58952332 138.51777649 C93.35179089 138.516576 83.11426959 138.53766408 72.87659055 138.56926382 C64.06436359 138.59548668 55.25220532 138.60614125 46.43993968 138.60486567 C41.18688218 138.60435774 35.93401239 138.60994699 30.68099403 138.63122177 C25.73553964 138.65070528 20.79045004 138.65065997 15.84498215 138.63618851 C14.03994776 138.63411169 12.23488992 138.63873325 10.4298954 138.65090942 C-6.61639166 138.75836343 -23.18779951 136.01162374 -36.27546692 123.95967102 C-44.41183201 114.86262668 -49.97488904 102.6938033 -50.05769348 90.4198761 C-50.06730103 89.26800308 -50.07690857 88.11613007 -50.08680725 86.92935181 C-50.09105713 85.68767746 -50.09530701 84.44600311 -50.09968567 83.16670227 C-50.10538574 81.88414047 -50.11108582 80.60157867 -50.11695862 79.28015137 C-50.12745093 76.56418972 -50.13330445 73.84825749 -50.13679504 71.13227844 C-50.14226141 67.67369153 -50.16625642 64.21550194 -50.194767 60.75703907 C-50.21802445 57.43526879 -50.21985217 54.11354964 -50.22468567 50.79170227 C-50.23703247 49.56014908 -50.24937927 48.32859589 -50.26210022 47.0597229 C-50.22642288 33.1787817 -45.56258205 22.73638463 -35.83406067 12.70967102 C-25.90009278 3.4367086 -13.43371567 -0.00337764 0 0 Z " fill="#FDD600" transform="translate(421.8965606689453,276.8528289794922)"/>
<path d="M0 0 C1.09587181 -0.01007584 1.09587181 -0.01007584 2.21388245 -0.02035522 C4.63500753 -0.03938362 7.05585549 -0.04326347 9.47705078 -0.04541016 C11.16798006 -0.05184066 12.85890824 -0.05856921 14.54983521 -0.06558228 C18.10242281 -0.0775713 21.65491312 -0.08126203 25.20751953 -0.08007812 C29.72741962 -0.0798762 34.24668199 -0.10703915 38.76643181 -0.14162254 C42.2652361 -0.16404234 45.76389144 -0.1679109 49.26276016 -0.16685867 C50.92668963 -0.16919738 52.59062431 -0.17792169 54.25448227 -0.19352341 C70.62754101 -0.33252376 87.78531703 2.8760144 100.21142578 14.54443359 C109.59175195 24.87203408 113.69818801 35.44559014 113.11376953 49.34912109 C112.14366713 61.43348313 108.66535448 68.96414441 99.79736328 77.10302734 C95.82396114 80.43065667 92.14401491 83.29052734 86.79736328 83.29052734 C86.79736328 83.95052734 86.79736328 84.61052734 86.79736328 85.29052734 C87.45736328 85.37302734 88.11736328 85.45552734 88.79736328 85.54052734 C98.63104074 87.99894671 107.77951445 94.58835138 113.23486328 103.10302734 C120.34205306 116.31072279 120.19394058 129.68388431 116.06689453 143.82958984 C112.05450273 154.76798718 103.38925204 163.4784757 93.03564453 168.67724609 C79.73139562 174.46850739 67.56574968 175.75672412 53.26611328 175.72412109 C51.49922486 175.72869095 49.73233822 175.7339989 47.9654541 175.74000549 C44.28760485 175.74888217 40.60997346 175.74657086 36.93212891 175.73657227 C32.21989212 175.72500862 27.50839654 175.74543366 22.79625702 175.7744894 C19.1588465 175.79281433 15.52161561 175.79256777 11.88417053 175.78685188 C10.14582773 175.78669864 8.40747279 175.79274521 6.66917419 175.80514336 C4.24723059 175.82000553 1.82668465 175.80941803 -0.59521484 175.79223633 C-1.31004028 175.8019043 -2.02486572 175.81157227 -2.76135254 175.8215332 C-6.17140066 175.77082182 -7.90358082 175.5267958 -10.61560059 173.38417053 C-13.38036759 169.73684613 -13.33164993 167.49131775 -13.34307861 162.93351746 C-13.34604974 162.27380095 -13.34902086 161.61408445 -13.35208201 160.93437654 C-13.36078581 158.71348117 -13.36227867 156.49263961 -13.36376953 154.27172852 C-13.36839654 152.68350611 -13.37342104 151.09528481 -13.3788147 149.50706482 C-13.39195254 145.18467176 -13.39838642 140.86229424 -13.40282536 136.53988433 C-13.40575403 133.84058087 -13.40985846 131.14128168 -13.41432953 128.44198036 C-13.4280085 119.99991538 -13.43767303 111.55786013 -13.44153142 103.11578482 C-13.44601242 93.36441641 -13.46356055 83.61318815 -13.49253201 73.86186236 C-13.51413715 66.3288946 -13.52423509 58.7959663 -13.52557254 51.26296788 C-13.52662147 46.76185271 -13.53254777 42.26086921 -13.55039215 37.75978661 C-13.56685254 33.52529189 -13.56903829 29.29102811 -13.56025314 25.05651283 C-13.55948166 23.50248726 -13.56384018 21.94844937 -13.5737114 20.39445496 C-13.5864014 18.27219024 -13.58057094 16.15074707 -13.57012939 14.02848816 C-13.57159595 12.84105105 -13.57306252 11.65361395 -13.57457352 10.4301939 C-13.15995172 6.9302063 -12.31493255 5.08725457 -10.20263672 2.29052734 C-6.64019094 -0.08443651 -4.11235805 -0.00541135 0 0 Z " fill="#070605" transform="translate(225.20263671875,613.70947265625)"/>
<path d="M0 0 C0.95390625 -0.00064453 1.9078125 -0.00128906 2.890625 -0.00195312 C3.87546875 0.01802734 4.8603125 0.03800781 5.875 0.05859375 C6.85984375 0.05150391 7.8446875 0.04441406 8.859375 0.03710938 C14.1176376 0.08329682 17.58392239 0.15633632 21.875 3.49609375 C22.50750732 6.2303009 22.50750732 6.2303009 22.51855469 9.58129883 C22.53497009 10.83723343 22.5513855 12.09316803 22.56829834 13.38716125 C22.56152728 14.76331771 22.55437616 16.13947233 22.546875 17.515625 C22.55746503 18.93513346 22.57038073 20.35462629 22.58551025 21.77409363 C22.61978838 25.52204971 22.62509255 29.26948668 22.62359619 33.01757812 C22.6263556 37.52093292 22.65945101 42.02413629 22.69166946 46.52736187 C22.71673553 50.0438568 22.73645835 53.56002311 22.73748779 57.07661438 C22.03199499 74.81762852 22.03199499 74.81762852 26.875 91.49609375 C33.17324228 96.74462898 38.98089257 97.07654283 46.875 96.49609375 C52.87090209 95.32818031 57.04562472 93.41957626 60.875 88.49609375 C64.66173615 82.05222409 65.99821112 77.00654857 66.00097656 69.49609375 C66.0028447 68.79967773 66.00471283 68.10326172 66.00663757 67.38574219 C66.01063245 65.87760792 66.01271557 64.36946764 66.01309967 62.86132812 C66.01652352 59.65453174 66.03789136 56.44793663 66.05833054 53.24121094 C66.0963277 47.27406041 66.12761056 41.30712921 66.12548828 35.33984375 C66.12470191 31.1852345 66.14802646 27.03136837 66.1873703 22.87695312 C66.19783874 21.29495585 66.19934805 19.71287289 66.19171906 18.13085938 C66.18211089 15.91844982 66.20324571 13.70829914 66.23144531 11.49609375 C66.23509094 10.23796875 66.23873657 8.97984375 66.24249268 7.68359375 C66.875 4.49609375 66.875 4.49609375 69.27095032 2.08895874 C72.01466901 0.41065994 73.35801681 0.00148566 76.52734375 0.03515625 C77.81608398 0.04095703 77.81608398 0.04095703 79.13085938 0.046875 C80.01580078 0.07136719 80.90074219 0.09585938 81.8125 0.12109375 C82.69357422 0.12238281 83.57464844 0.12367188 84.48242188 0.125 C89.26785041 0.18952263 93.46435101 0.43917137 97.875 2.49609375 C99.99724535 5.67946178 100.12761108 6.47185547 100.14242554 10.11985779 C100.15095551 11.06900055 100.15948547 12.01814331 100.16827393 12.99604797 C100.16736755 14.03561142 100.16646118 15.07517487 100.16552734 16.14624023 C100.17224457 17.24240662 100.17896179 18.338573 100.18588257 19.46795654 C100.20492185 23.10107929 100.20878965 26.73401793 100.2109375 30.3671875 C100.21736084 32.886806 100.22408884 35.40642374 100.23110962 37.92604065 C100.24309692 43.21121248 100.2468744 48.49631537 100.24560547 53.78149414 C100.24440365 59.889729 100.26551306 65.99761074 100.2970928 72.10575622 C100.32639466 77.98279206 100.33358167 83.85971996 100.33238602 89.73683357 C100.33475059 92.23714707 100.34362193 94.73746301 100.35905075 97.23773003 C100.37858975 100.73097131 100.3729198 104.22329752 100.36083984 107.71655273 C100.37207886 108.75409195 100.38331787 109.79163116 100.39489746 110.86061096 C100.33314427 117.8682266 100.33314427 117.8682266 97.96963501 121.10731506 C93.36660195 124.15920438 89.33781663 123.67982521 83.9375 123.68359375 C83.01775391 123.69583984 82.09800781 123.70808594 81.15039062 123.72070312 C80.26673828 123.72263672 79.38308594 123.72457031 78.47265625 123.7265625 C77.66320557 123.73067139 76.85375488 123.73478027 76.01977539 123.73901367 C73.875 123.49609375 73.875 123.49609375 70.875 121.49609375 C70.14453125 118.23828125 70.14453125 118.23828125 69.6875 114.37109375 C69.52894531 113.08976563 69.37039063 111.8084375 69.20703125 110.48828125 C69.04267578 109.00714844 69.04267578 109.00714844 68.875 107.49609375 C68.47410156 108.07617188 68.07320313 108.65625 67.66015625 109.25390625 C61.41166462 117.8402689 54.26881286 123.05949209 43.875 125.49609375 C39.88587942 125.92394459 35.94665485 125.9613475 31.9375 125.93359375 C30.91720703 125.95357422 29.89691406 125.97355469 28.84570312 125.99414062 C17.58325237 125.98695336 9.05295583 122.17175671 0.875 114.49609375 C-7.48084271 105.54473441 -10.25320847 94.98585676 -10.31787109 83.00561523 C-10.32604858 82.16274963 -10.33422607 81.31988403 -10.34265137 80.45147705 C-10.36738621 77.67338763 -10.38398457 74.89534864 -10.3984375 72.1171875 C-10.40376118 71.16693254 -10.40908485 70.21667759 -10.41456985 69.23762703 C-10.44124075 64.2144972 -10.46064091 59.19139179 -10.47509766 54.16821289 C-10.48847247 50.00978778 -10.51639853 45.85184925 -10.55712891 41.69360352 C-10.60633689 36.66924634 -10.63120275 31.64533258 -10.63832474 26.62074471 C-10.64504965 24.70652481 -10.66030381 22.79231531 -10.68421555 20.87823296 C-10.71573627 18.20401781 -10.71592485 15.53152884 -10.70849609 12.85717773 C-10.72490143 12.06589981 -10.74130676 11.27462189 -10.75820923 10.45936584 C-10.71379875 6.56043758 -10.48466896 4.87261175 -7.74526978 2.00488281 C-4.87828785 0.35403334 -3.28047983 -0.00703834 0 0 Z " fill="#060605" transform="translate(371.125,665.50390625)"/>
<path d="M0 0 C1.2664888 -0.00810448 1.2664888 -0.00810448 2.55856323 -0.01637268 C5.34726088 -0.0288723 8.13492872 -0.0123624 10.92358398 0.00561523 C12.86124221 0.00546029 14.79890075 0.00397206 16.73655701 0.00120544 C20.79602775 -0.00017905 24.85514538 0.01238917 28.91455078 0.03515625 C34.12250068 0.06355992 39.32986463 0.06079908 44.53785801 0.04806614 C48.53811159 0.04111777 52.53822927 0.04888829 56.5384655 0.06132317 C58.45903948 0.06584453 60.37962801 0.06616851 62.30020332 0.06225777 C64.98169087 0.05935331 67.66236512 0.07581481 70.34375 0.09765625 C71.53841637 0.09090378 71.53841637 0.09090378 72.75721741 0.08401489 C78.12100866 0.15675342 78.12100866 0.15675342 80.59165955 1.90977478 C82.64231261 5.12439446 82.3940329 8.78850167 82.60717773 12.50170898 C82.71803711 13.37569336 82.82889648 14.24967773 82.94311523 15.15014648 C83.52977945 22.2103469 81.67389008 25.90851769 77.28686523 31.34936523 C76.86888672 31.84065918 76.4509082 32.33195313 76.02026367 32.83813477 C74.40022463 34.74534728 72.81989328 36.68222155 71.23999023 38.62280273 C68.81997546 41.58742765 66.38624049 44.53981571 63.93920898 47.48217773 C60.72427628 51.35105595 57.5741927 55.26786738 54.44311523 59.20483398 C51.71645156 62.61606428 48.9431318 65.9885502 46.17358398 69.36499023 C42.50316607 73.84451831 38.85854314 78.34509607 35.21191406 82.84399414 C34.68750732 83.49029785 34.16310059 84.13660156 33.62280273 84.80249023 C33.16164063 85.37136963 32.70047852 85.94024902 32.2253418 86.52636719 C30.03604359 89.1989097 27.82124296 91.84964797 25.60717773 94.50170898 C26.64954338 94.51050835 26.64954338 94.51050835 27.71296692 94.51948547 C34.26093782 94.57738239 40.80858163 94.64944125 47.3562212 94.7374239 C50.72248251 94.78215739 54.08862197 94.82140638 57.45507812 94.84814453 C61.32509494 94.88159879 65.1944622 94.93391151 69.06420898 94.98999023 C70.87838066 94.99957512 70.87838066 94.99957512 72.72920227 95.00935364 C73.85013779 95.0291478 74.9710733 95.04894196 76.12597656 95.06933594 C77.11414871 95.080439 78.10232086 95.09154205 79.12043762 95.10298157 C81.99351836 95.56365538 82.90039736 96.18539565 84.60717773 98.50170898 C85.23475932 101.7837142 85.0706428 105.10387823 85.04467773 108.43920898 C85.0646582 109.34606445 85.08463867 110.25291992 85.10522461 111.18725586 C85.10033193 117.83640651 85.10033193 117.83640651 82.70483398 121.06811523 C78.66398 123.8297417 75.27020875 123.67551188 70.50488281 123.71044922 C69.66727417 123.720233 68.82966553 123.73001678 67.9666748 123.74009705 C65.18670242 123.77008024 62.40677834 123.79144681 59.62670898 123.81030273 C58.67744726 123.81687456 57.72818554 123.82344639 56.75015831 123.83021736 C51.72359075 123.8628269 46.69704451 123.8872715 41.67041016 123.90673828 C37.51189258 123.92454029 33.35405451 123.95934038 29.19580078 124.00927734 C24.17486408 124.06950628 19.15455674 124.10021818 14.13327599 124.10991096 C12.22151052 124.11846396 10.30976179 124.13727831 8.3982029 124.16665459 C5.7168751 124.20563493 3.03798996 124.20659559 0.35644531 124.19873047 C-0.82136253 124.22873138 -0.82136253 124.22873138 -2.02296448 124.25933838 C-7.33921529 124.1895851 -10.13700236 122.73237489 -14.08180714 119.19711399 C-16.54469901 116.01210176 -16.38906558 112.63308329 -16.20532227 108.75170898 C-16.18050781 107.94894531 -16.15569336 107.14618164 -16.13012695 106.3190918 C-15.72700875 99.35895997 -13.92357721 94.85392791 -9.39282227 89.50170898 C-8.96888184 88.9925293 -8.54494141 88.48334961 -8.1081543 87.95874023 C-5.62585975 84.9851853 -3.09870456 82.05529935 -0.54125977 79.14624023 C2.49220918 75.67344771 5.34863709 72.08542434 8.16967773 68.43920898 C12.21646016 63.22037574 16.39536991 58.14270932 20.68676758 53.12353516 C24.04285935 49.19240644 27.28589044 45.18804491 30.46264648 41.11108398 C33.72749393 37.13855558 37.17436833 33.32919552 40.60717773 29.50170898 C40.01693314 29.49806335 39.42668854 29.49441772 38.81855774 29.49066162 C32.66998046 29.44882074 26.52214854 29.37946408 20.37402344 29.29418945 C18.08015399 29.26598016 15.78618735 29.24476546 13.4921875 29.23071289 C10.19277181 29.20928348 6.89452471 29.16263115 3.59545898 29.11108398 C2.57132401 29.10985535 1.54718903 29.10862671 0.49201965 29.10736084 C-3.87183258 29.01778398 -6.67694239 28.89951874 -10.5402832 26.75268555 C-12.63495428 24.20750008 -13.0247102 23.13138159 -13.02172852 19.87670898 C-13.02366211 19.00530273 -13.0255957 18.13389648 -13.02758789 17.23608398 C-13.00374023 16.33374023 -12.97989258 15.43139648 -12.95532227 14.50170898 C-12.9662793 13.59936523 -12.97723633 12.69702148 -12.98852539 11.76733398 C-12.916025 5.23263188 -12.916025 5.23263188 -10.8840332 2.39390564 C-7.39453027 -0.25654266 -4.20808466 -0.05121174 0 0 Z " fill="#060605" transform="translate(502.392822265625,665.498291015625)"/>
<path d="M0 0 C0.82335846 -0.00540298 1.64671692 -0.01080597 2.49502563 -0.01637268 C5.20855988 -0.02885001 7.92103115 -0.0123774 10.63452148 0.00561523 C12.52351436 0.00546024 14.41250756 0.00397115 16.30149841 0.00120544 C20.25664359 -0.00017805 24.2114259 0.01237241 28.16650391 0.03515625 C33.23644808 0.06356015 38.3057903 0.06079761 43.37577915 0.04806614 C47.27484786 0.04111238 51.17377736 0.04889446 55.07282829 0.06132317 C56.94233606 0.06583924 58.81185875 0.0661731 60.68136787 0.06225777 C63.29309882 0.05934802 65.90399902 0.07584015 68.515625 0.09765625 C69.28820145 0.0931546 70.06077789 0.08865295 70.85676575 0.08401489 C74.0757261 0.12870122 76.33345827 0.29923759 79.16612244 1.89390564 C82.1701468 5.05690708 81.50917762 9.35421236 81.69311523 13.50170898 C81.82588867 14.28932617 81.95866211 15.07694336 82.09545898 15.88842773 C83.00497831 23.42622486 79.0326111 28.26646965 74.61889648 33.91186523 C73.64874154 35.1126228 72.67348617 36.30927778 71.69311523 37.50170898 C71.22309082 38.0738916 70.75306641 38.64607422 70.26879883 39.2355957 C67.96496252 42.01730025 65.62846801 44.76853007 63.26733398 47.50170898 C60.41678822 50.82374108 57.69207116 54.22741217 54.97436523 57.65795898 C51.98194353 61.3882381 48.92943143 65.06748454 45.88061523 68.75170898 C40.87549728 74.80219118 35.95563521 80.90823063 31.15673828 87.1237793 C29.12463257 89.74376249 27.06599192 92.18880284 24.69311523 94.50170898 C25.75427299 94.51050835 25.75427299 94.51050835 26.83686829 94.51948547 C33.50256455 94.57738 40.16793941 94.64943752 46.83331013 94.7374239 C50.26010603 94.78215926 53.68678218 94.82140787 57.11376953 94.84814453 C61.05323834 94.87911945 64.99220174 94.93390996 68.93139648 94.98999023 C70.16271805 94.99638016 71.39403961 95.00277008 72.66267395 95.00935364 C73.80363022 95.0291478 74.94458649 95.04894196 76.12011719 95.06933594 C77.12605423 95.080439 78.13199127 95.09154205 79.16841125 95.10298157 C82.06879339 95.56103997 82.97914149 96.15791422 84.69311523 98.50170898 C85.34966349 101.94896906 85.202538 105.43629488 85.19311523 108.93920898 C85.22147461 109.89375977 85.24983398 110.84831055 85.27905273 111.83178711 C85.28291992 113.21333984 85.28291992 113.21333984 85.28686523 114.62280273 C85.29395508 115.46254639 85.30104492 116.30229004 85.30834961 117.16748047 C84.38372016 120.67556864 82.73672693 121.58524261 79.69311523 123.50170898 C76.71700599 123.88914568 74.11457343 124.04953872 71.14257812 124.01928711 C70.29317154 124.02629639 69.44376495 124.03330566 68.56861877 124.04052734 C65.76733479 124.05809857 62.96706534 124.04648679 60.16577148 124.03295898 C58.21430773 124.0356544 56.26284528 124.03953724 54.31138611 124.04455566 C50.22341106 124.05044974 46.1357859 124.04189154 42.04785156 124.02319336 C36.81434002 124.00041907 31.5816497 124.01351791 26.34816837 124.03748322 C22.31861719 124.05195649 18.28925979 124.04732791 14.25970268 124.03697205 C12.33043762 124.03430821 10.40115483 124.03756243 8.47191048 124.04689026 C5.77181731 124.05707934 3.07304219 124.04152152 0.37304688 124.01928711 C-0.42039124 124.02738403 -1.21382935 124.03548096 -2.03131104 124.04382324 C-7.21813137 123.9649207 -10.18611439 122.92366182 -14.30688477 119.50170898 C-17.12401877 113.86744098 -16.11065496 104.66831783 -15.30688477 98.50170898 C-13.71309383 94.1015752 -11.35478689 91.01892476 -8.30688477 87.50170898 C-7.42731973 86.43691947 -6.54982016 85.37042141 -5.67407227 84.30249023 C-3.8088992 82.05167959 -1.91618766 79.8288264 0.00170898 77.62280273 C2.30442246 74.97004454 4.51639958 72.2594781 6.69311523 69.50170898 C10.22067693 65.05077735 13.87333567 60.71850921 17.55200195 56.39282227 C21.20116794 52.09693665 24.78978174 47.75517446 28.34716797 43.3828125 C30.71600426 40.47359853 33.0903855 37.56899984 35.46655273 34.66577148 C36.2623877 33.69333496 37.05822266 32.72089844 37.87817383 31.71899414 C38.77656982 30.62143799 38.77656982 30.62143799 39.69311523 29.50170898 C39.10287064 29.50250458 38.51262604 29.50330017 37.90449524 29.50411987 C31.75578567 29.50655941 25.60833785 29.46735196 19.45996094 29.40405273 C17.16607527 29.3858949 14.8720802 29.37832382 12.578125 29.3815918 C9.27835481 29.38444936 5.98085258 29.3491273 2.68139648 29.30639648 C1.65726151 29.31549042 0.63312653 29.32458435 -0.42204285 29.33395386 C-7.31676602 29.19351001 -7.31676602 29.19351001 -10.07446289 27.26669312 C-12.56376501 24.48166782 -13.94081515 21.84408676 -13.97094727 18.11889648 C-13.98061523 16.95680664 -13.98061523 16.95680664 -13.99047852 15.77124023 C-13.97114258 14.98104492 -13.95180664 14.19084961 -13.93188477 13.37670898 C-13.9512207 12.5787793 -13.97055664 11.78084961 -13.99047852 10.95874023 C-13.9840332 10.1865918 -13.97758789 9.41444336 -13.97094727 8.61889648 C-13.96248779 7.57644775 -13.96248779 7.57644775 -13.95385742 6.51293945 C-11.89480175 0.11199583 -5.74480657 -0.07207897 0 0 Z " fill="#060605" transform="translate(617.306884765625,665.498291015625)"/>
<path d="M0 0 C0.95390625 -0.00064453 1.9078125 -0.00128906 2.890625 -0.00195312 C3.87546875 0.01802734 4.8603125 0.03800781 5.875 0.05859375 C6.85984375 0.05150391 7.8446875 0.04441406 8.859375 0.03710938 C17.90884356 0.11659795 17.90884356 0.11659795 21.875 3.49609375 C23.07535701 5.89680777 23.00856675 7.40083808 23.02217102 10.08226013 C23.02932632 11.0483017 23.03648163 12.01434326 23.04385376 13.00965881 C23.04654266 14.07309006 23.04923157 15.1365213 23.05200195 16.23217773 C23.06185875 17.90787842 23.06185875 17.90787842 23.07191467 19.61743164 C23.09167668 23.3256842 23.10331497 27.03389628 23.11328125 30.7421875 C23.11735678 32.00535357 23.1214323 33.26851963 23.12563133 34.56996346 C23.14434805 40.56232733 23.15891324 46.55466653 23.1672433 52.54705185 C23.17702433 59.46915779 23.20336733 66.39094469 23.24374419 73.31293815 C23.27749905 79.30477925 23.2893845 85.29646492 23.29344749 91.28840828 C23.2983345 93.83979523 23.31000793 96.39117825 23.32848549 98.94250298 C23.35269154 102.50546944 23.35194589 106.06759268 23.3449707 109.63061523 C23.35778076 110.69202225 23.37059082 111.75342926 23.38378906 112.84700012 C23.37684525 113.81586151 23.36990143 114.7847229 23.36274719 115.78294373 C23.36513555 116.62563025 23.3675239 117.46831678 23.36998463 118.33653927 C22.875 120.49609375 22.875 120.49609375 20.99989605 122.26640415 C18.37553323 123.78513805 16.65043374 123.88330576 13.62890625 123.89453125 C12.12553711 123.90033203 12.12553711 123.90033203 10.59179688 123.90625 C9.55087891 123.89464844 8.50996094 123.88304687 7.4375 123.87109375 C6.40044922 123.88269531 5.36339844 123.89429688 4.29492188 123.90625 C-5.24973227 123.86946906 -5.24973227 123.86946906 -9.125 120.49609375 C-10.31916166 118.10777044 -10.26107479 116.62135826 -10.27890015 113.95462036 C-10.28750061 112.99843811 -10.29610107 112.04225586 -10.30496216 111.05709839 C-10.30922211 110.00458893 -10.31348206 108.95207947 -10.31787109 107.86767578 C-10.32604858 106.76190186 -10.33422607 105.65612793 -10.34265137 104.5168457 C-10.36753017 100.84587146 -10.38402598 97.1749359 -10.3984375 93.50390625 C-10.40376118 92.2530209 -10.40908485 91.00213554 -10.41456985 89.71334457 C-10.43580268 84.45817716 -10.45493334 79.20301558 -10.46619225 73.94781685 C-10.48243767 66.41462107 -10.51563181 58.88194057 -10.57259309 51.34893906 C-10.61593631 45.41479936 -10.63193449 39.48077498 -10.63832474 33.54647446 C-10.64505879 31.02101851 -10.66033615 28.49557069 -10.68421555 25.97021866 C-10.71569001 22.44084334 -10.71593008 18.91277848 -10.70849609 15.38330078 C-10.72490143 14.33483978 -10.74130676 13.28637878 -10.75820923 12.20614624 C-10.69703485 5.13287765 -10.69703485 5.13287765 -7.74526978 1.84700012 C-4.90596569 0.38316841 -3.17674013 -0.00681577 0 0 Z " fill="#080705" transform="translate(728.125,665.50390625)"/>
<path d="M0 0 C0.90878906 0.00708984 1.81757812 0.01417969 2.75390625 0.02148438 C4.15962891 0.07079102 4.15962891 0.07079102 5.59375 0.12109375 C6.99947266 0.12979492 6.99947266 0.12979492 8.43359375 0.13867188 C18.8586699 0.32351365 18.8586699 0.32351365 23.09375 4.55859375 C23.35381222 6.60792446 23.35381222 6.60792446 23.36790466 9.182724 C23.38286736 10.64440758 23.38286736 10.64440758 23.39813232 12.13562012 C23.398797 13.2084021 23.39946167 14.28118408 23.40014648 15.38647461 C23.40847 16.51336197 23.41679352 17.64024933 23.42536926 18.80128479 C23.44954824 22.54203706 23.45825062 26.28261528 23.46484375 30.0234375 C23.47380327 32.61414139 23.48292497 35.20484472 23.49220276 37.79554749 C23.50871628 43.23212289 23.51643058 48.66862777 23.51928711 54.10522461 C23.52292414 60.39245499 23.55282839 66.67919771 23.59469169 72.96627897 C23.63352975 79.01047208 23.6448789 85.05439415 23.64601326 91.09872627 C23.65023181 93.67244679 23.66273087 96.24616713 23.68353081 98.81980705 C23.71026879 102.41408101 23.70567141 106.00699707 23.69311523 109.60131836 C23.70794952 110.67207611 23.72278381 111.74283386 23.73806763 112.84603882 C23.71142537 115.51275178 23.65512533 117.9518419 23.09375 120.55859375 C18.46616553 124.7563212 13.02326061 124.03878002 7.09375 123.99609375 C6.10890625 124.01607422 5.1240625 124.03605469 4.109375 124.05664062 C-0.39346036 124.05359817 -3.12350859 124.03508758 -7.03125 121.65625 C-9.71826083 118.65015663 -10.03332726 117.03533212 -10.06015015 113.09977722 C-10.06875061 112.16186844 -10.07735107 111.22395966 -10.08621216 110.25762939 C-10.09047211 109.22539246 -10.09473206 108.19315552 -10.09912109 107.12963867 C-10.10729858 106.04497818 -10.11547607 104.96031769 -10.12390137 103.8427887 C-10.14878131 100.24155231 -10.16527718 96.64035538 -10.1796875 93.0390625 C-10.18501118 91.81149042 -10.19033485 90.58391834 -10.19581985 89.31914711 C-10.21980196 83.49337458 -10.2390429 77.66761838 -10.2518419 71.84181041 C-10.26690628 65.11830647 -10.30200087 58.39528785 -10.35384309 51.67196959 C-10.39722002 45.8478034 -10.413188 40.02380035 -10.41957474 34.19948769 C-10.42630363 31.72230599 -10.4415678 29.24513243 -10.46546555 26.76805687 C-10.49698522 23.30353946 -10.49717311 19.84035479 -10.48974609 16.37573242 C-10.50615143 15.34956818 -10.52255676 14.32340393 -10.53945923 13.2661438 C-10.49768174 8.5132467 -10.46852773 6.29839463 -7.52078247 2.41998291 C-4.68576793 0.40162383 -3.43034852 -0.05616355 0 0 Z " fill="#080705" transform="translate(784.90625,665.44140625)"/>
<path d="M0 0 C9.838125 -0.0928125 9.838125 -0.0928125 19.875 -0.1875 C21.92444824 -0.21481201 23.97389648 -0.24212402 26.08544922 -0.27026367 C27.74185602 -0.27903986 29.39826938 -0.2866811 31.0546875 -0.29296875 C31.8887915 -0.30831665 32.72289551 -0.32366455 33.58227539 -0.33947754 C41.69230067 -0.34301492 50.03477036 1.28027858 56.52734375 6.4375 C60.82647643 10.99891399 62.23086417 16.35258416 62.4375 22.5 C62.09437208 30.67788203 59.97475319 37.2968265 54 43 C46.61686412 46.89292619 39.58835035 47.14640546 31.4453125 47.09765625 C30.64536865 47.09664917 29.8454248 47.09564209 29.02124023 47.09460449 C26.05581207 47.08940396 23.09040448 47.07544286 20.125 47.0625 C10.163125 47.0315625 10.163125 47.0315625 0 47 C0 31.49 0 15.98 0 0 Z " fill="#FCD600" transform="translate(246,713)"/>
<path d="M0 0 C5.383125 -0.04125 10.76625 -0.0825 16.3125 -0.125 C17.98739502 -0.14320801 19.66229004 -0.16141602 21.38793945 -0.18017578 C43.77354695 -0.32314642 43.77354695 -0.32314642 51 6 C54.64798927 10.57307746 54.45248115 14.84594395 54.375 20.4375 C54.38660156 21.27087891 54.39820313 22.10425781 54.41015625 22.96289062 C54.37860743 29.614434 53.08031754 33.87130299 48.3125 38.75 C42.46508737 43.24323613 35.1881707 43.2906593 28.125 43.1953125 C27.40570313 43.19329834 26.68640625 43.19128418 25.9453125 43.18920898 C23.29680873 43.17886327 20.64839693 43.15094217 18 43.125 C12.06 43.08375 6.12 43.0425 0 43 C0 28.81 0 14.62 0 0 Z " fill="#FCD700" transform="translate(246,643)"/>
<path d="M0 0 C4.6225556 2.75001351 8.30291931 7.10797667 9.99609375 12.1875 C10.52184438 19.02225813 9.05852069 23.74515231 4.62109375 29 C-0.81195209 33.5275382 -5.97269907 33.63177879 -12.8359375 33.4921875 C-17.47253373 33.04625099 -19.43666883 32.22344674 -23.00390625 29.1875 C-26.67730231 24.41428475 -27.65561204 19.53053351 -27.390625 13.58203125 C-26.58291773 8.58077309 -24.24270462 5.36277025 -20.56640625 1.875 C-13.87782277 -2.52967693 -7.42903333 -3.01216166 0 0 Z " fill="#070605" transform="translate(801.00390625,612.8125)"/>
<path d="M0 0 C4.07567284 2.28614422 6.16125998 5.64673872 8.234375 9.79296875 C9.37497286 15.72407763 8.85848995 20.96788386 6.234375 26.41796875 C2.48349743 30.56367554 -0.51113287 32.69284616 -6.015625 33.42578125 C-12.58079789 33.67197523 -16.99424974 33.22439865 -22.140625 29.04296875 C-26.55511636 23.7229407 -26.75791036 18.88956308 -26.5234375 12.07421875 C-26.01742016 8.06738753 -24.95864278 5.93514489 -22.140625 3.04296875 C-14.95905376 -2.37985035 -8.36835917 -3.45438082 0 0 Z " fill="#070705" transform="translate(744.140625,612.95703125)"/>
<path d="M0 0 C6.72375 -0.04125 13.4475 -0.0825 20.375 -0.125 C22.49728027 -0.14320801 24.61956055 -0.16141602 26.80615234 -0.18017578 C28.48274482 -0.18601537 30.15934012 -0.19111219 31.8359375 -0.1953125 C32.71096924 -0.20554443 33.58600098 -0.21577637 34.48754883 -0.22631836 C36.65967622 -0.22694924 38.83137959 -0.12338291 41 0 C41.66 0.66 42.32 1.32 43 2 C29.47 2 15.94 2 2 2 C2.33 16.52 2.66 31.04 3 46 C2.01 46 1.02 46 0 46 C0 30.82 0 15.64 0 0 Z " fill="#E7D600" transform="translate(246,713)"/>
<path d="M0 0 C0 0.99 0 1.98 0 3 C0.96053535 3.00546844 0.96053535 3.00546844 1.94047546 3.01104736 C8.60806513 3.05287198 15.27496642 3.12221772 21.94213867 3.20751953 C24.43002435 3.23573752 26.91799982 3.25694787 29.40600586 3.27099609 C32.98337807 3.29241321 36.55966973 3.3390602 40.13671875 3.390625 C41.80416389 3.39246796 41.80416389 3.39246796 43.5052948 3.39434814 C51.21039144 3.54034 51.21039144 3.54034 55.17895508 5.85058594 C57.77270835 8.91204241 58.1251325 11.35631696 58.09765625 15.23046875 C58.09443359 16.03291016 58.09121094 16.83535156 58.08789062 17.66210938 C58.07532227 18.91217773 58.07532227 18.91217773 58.0625 20.1875 C58.05798828 21.03248047 58.05347656 21.87746094 58.04882812 22.74804688 C58.03705403 24.83206155 58.0191189 26.91603977 58 29 C57.34 29 56.68 29 56 29 C55.970271 28.10692139 55.970271 28.10692139 55.93994141 27.19580078 C55.84483874 24.50507847 55.73510158 21.81514852 55.625 19.125 C55.5940625 18.18785156 55.563125 17.25070312 55.53125 16.28515625 C55.47324219 14.94130859 55.47324219 14.94130859 55.4140625 13.5703125 C55.3826416 12.74289551 55.3512207 11.91547852 55.31884766 11.06298828 C55.17400863 8.78013915 55.17400863 8.78013915 53 7 C50.45240753 6.66814656 50.45240753 6.66814656 47.44873047 6.68115234 C46.28767792 6.66128265 45.12662537 6.64141296 43.9303894 6.62094116 C42.04285446 6.60361435 42.04285446 6.60361435 40.1171875 6.5859375 C38.83264679 6.56657135 37.54810608 6.5472052 36.22463989 6.5272522 C32.80852465 6.47586059 29.39236993 6.43627286 25.97607422 6.39910889 C22.49046001 6.35911302 19.00501097 6.30800062 15.51953125 6.2578125 C8.6798081 6.16097025 1.83997904 6.0765922 -5 6 C-3.35 4.02 -1.7 2.04 0 0 Z " fill="#FBEB00" transform="translate(646,755)"/>
<path d="M0 0 C0.33 0.66 0.66 1.32 1 2 C1.94174324 2.00546844 1.94174324 2.00546844 2.9025116 2.01104736 C9.44034772 2.0528758 15.97748205 2.12222411 22.51489258 2.20751953 C24.95427428 2.23573547 27.39374752 2.25694685 29.83325195 2.27099609 C33.34113448 2.2924161 36.84791571 2.33906435 40.35546875 2.390625 C41.44522507 2.39185364 42.53498138 2.39308228 43.65776062 2.39434814 C51.24029305 2.54083581 51.24029305 2.54083581 55.1652832 4.91308594 C58.62012851 8.84282881 58.18338944 12.49334032 58.1875 17.5 C58.19974609 18.28503906 58.21199219 19.07007813 58.22460938 19.87890625 C58.22986254 21.92063726 58.1222018 23.96192251 58 26 C57.34 26.66 56.68 27.32 56 28 C55.970271 27.10692139 55.970271 27.10692139 55.93994141 26.19580078 C55.84483874 23.50507847 55.73510158 20.81514852 55.625 18.125 C55.5940625 17.18785156 55.563125 16.25070312 55.53125 15.28515625 C55.47324219 13.94130859 55.47324219 13.94130859 55.4140625 12.5703125 C55.3826416 11.74289551 55.3512207 10.91547852 55.31884766 10.06298828 C55.17400863 7.78013915 55.17400863 7.78013915 53 6 C50.49310171 5.6682747 50.49310171 5.6682747 47.54052734 5.68115234 C46.39949554 5.66128265 45.25846375 5.64141296 44.08285522 5.62094116 C42.84637238 5.60938995 41.60988953 5.59783875 40.3359375 5.5859375 C38.4424205 5.55688828 38.4424205 5.55688828 36.51065063 5.5272522 C33.15365788 5.47750955 29.79677685 5.43627428 26.43963623 5.39910889 C23.01434336 5.35911153 19.58921854 5.30799981 16.1640625 5.2578125 C9.44281619 5.1615994 2.72149695 5.07659418 -4 5 C-2.68 3.35 -1.36 1.7 0 0 Z " fill="#FAE800" transform="translate(531,756)"/>
<path d="M0 0 C0.99 0.495 0.99 0.495 2 1 C2 9.91 2 18.82 2 28 C10.58 28 19.16 28 28 28 C28.33 28.66 28.66 29.32 29 30 C19.43 30 9.86 30 0 30 C0 20.1 0 10.2 0 0 Z " fill="#F9E800" transform="translate(246,656)"/>
<path d="M0 0 C16.17 0 32.34 0 49 0 C47.68 1.32 46.36 2.64 45 4 C45 3.34 45 2.68 45 2 C43.11510864 2.01571045 43.11510864 2.01571045 41.19213867 2.03173828 C36.53494103 2.06790817 31.87775584 2.09088953 27.22045898 2.10986328 C25.20383619 2.11992773 23.18722801 2.13358047 21.1706543 2.15087891 C18.27388911 2.17510769 15.37731669 2.18647859 12.48046875 2.1953125 C11.12564644 2.21079636 11.12564644 2.21079636 9.74345398 2.22659302 C8.4824865 2.22681961 8.4824865 2.22681961 7.19604492 2.22705078 C6.08684944 2.23371262 6.08684944 2.23371262 4.95524597 2.24050903 C3 2 3 2 0 0 Z " fill="#FDF000" transform="translate(609,694)"/>
<path d="M0 0 C0.33 0.99 0.66 1.98 1 3 C-0.32 3.33 -1.64 3.66 -3 4 C-3 4.66 -3 5.32 -3 6 C-8.22545667 7.47754292 -14.07754712 8.1844986 -19.20703125 6.10546875 C-21.125 5 -21.125 5 -24 3 C-23.34 2.67 -22.68 2.34 -22 2 C-21.01 2.33 -20.02 2.66 -19 3 C-8.98423567 3.74195914 -8.98423567 3.74195914 0 0 Z " fill="#F1DB00" transform="translate(804,642)"/>
<path d="M0 0 C0 0.66 0 1.32 0 2 C-1.01320313 2.09087891 -1.01320313 2.09087891 -2.046875 2.18359375 C-2.93890625 2.26738281 -3.8309375 2.35117187 -4.75 2.4375 C-5.63171875 2.51871094 -6.5134375 2.59992187 -7.421875 2.68359375 C-9.69350452 2.96238465 -11.79851823 3.38790577 -14 4 C-14 3.34 -14 2.68 -14 2 C-9.35150485 -0.3992233 -5.08913926 -0.19957409 0 0 Z " fill="#EDDD00" transform="translate(472,514)"/>
<path d="M0 0 C0.66 0 1.32 0 2 0 C1.85904936 1.6254308 1.71207913 3.25034051 1.5625 4.875 C1.48128906 5.77992188 1.40007813 6.68484375 1.31640625 7.6171875 C1 10 1 10 0 12 C-0.66 12 -1.32 12 -2 12 C-1.34 8.04 -0.68 4.08 0 0 Z " fill="#1C1905" transform="translate(751,626)"/>
<path d="M0 0 C0.66 0 1.32 0 2 0 C2.33 2.97 2.66 5.94 3 9 C2.01 9.495 2.01 9.495 1 10 C0.63883954 8.5225254 0.28624952 7.04295325 -0.0625 5.5625 C-0.25972656 4.73878906 -0.45695312 3.91507812 -0.66015625 3.06640625 C-0.82837891 2.04353516 -0.82837891 2.04353516 -1 1 C-0.67 0.67 -0.34 0.34 0 0 Z " fill="#110E05" transform="translate(299,436)"/>
<path d="M0 0 C3.41742782 1.13914261 4.12880598 2.06390308 6.25 4.875 C6.79140625 5.57367188 7.3328125 6.27234375 7.890625 6.9921875 C8.25671875 7.65476563 8.6228125 8.31734375 9 9 C8.67 9.99 8.34 10.98 8 12 C6.84906075 10.5665848 5.70441965 9.12811091 4.5625 7.6875 C3.92441406 6.88699219 3.28632812 6.08648437 2.62890625 5.26171875 C1 3 1 3 0 0 Z " fill="#F0E201" transform="translate(700,229)"/>
<path d="M0 0 C0.66 0.33 1.32 0.66 2 1 C1.195625 1.45375 0.39125 1.9075 -0.4375 2.375 C-3.08856572 3.74725665 -3.08856572 3.74725665 -4 6 C-5.32 5.67 -6.64 5.34 -8 5 C-5.45378681 2.99940392 -3.01962385 1.20784954 0 0 Z " fill="#FCFAEA" transform="translate(815,881)"/>
<path d="M0 0 C0.99 0.66 1.98 1.32 3 2 C0.03 4.475 0.03 4.475 -3 7 C-3.66 6.67 -4.32 6.34 -5 6 C-3.35 4.02 -1.7 2.04 0 0 Z " fill="#EBD800" transform="translate(682,710)"/>
<path d="M0 0 C0.99 0.33 1.98 0.66 3 1 C1.68 2.65 0.36 4.3 -1 6 C-1.99 5.67 -2.98 5.34 -4 5 C-2.68 3.35 -1.36 1.7 0 0 Z " fill="#F4DF00" transform="translate(659,738)"/>
</svg>
